<svg width="364" height="158" viewBox="0 0 364 158" fill="none" xmlns="http://www.w3.org/2000/svg">
<path d="M170.024 33.8052V28.01" stroke="#5570F1" stroke-width="4.57493" stroke-linecap="round" stroke-linejoin="round"/>
<path d="M165.678 28.01L174.371 28.01" stroke="#5570F1" stroke-width="4.57493" stroke-linecap="round" stroke-linejoin="round"/>
<path d="M170.025 106.245L170.025 112.04" stroke="#5570F1" stroke-width="4.57493" stroke-linecap="round" stroke-linejoin="round"/>
<path d="M174.371 112.04L165.678 112.04" stroke="#5570F1" stroke-width="4.57493" stroke-linecap="round" stroke-linejoin="round"/>
<path d="M206.245 70.0248L212.04 70.0248" stroke="#5570F1" stroke-width="4.57493" stroke-linecap="round" stroke-linejoin="round"/>
<path d="M212.04 65.6785L212.04 74.3712" stroke="#5570F1" stroke-width="4.57493" stroke-linecap="round" stroke-linejoin="round"/>
<path d="M133.804 70.0251L128.009 70.0251" stroke="#5570F1" stroke-width="4.57493" stroke-linecap="round" stroke-linejoin="round"/>
<path d="M128.009 74.3715L128.009 65.6787" stroke="#5570F1" stroke-width="4.57493" stroke-linecap="round" stroke-linejoin="round"/>
<path d="M151.915 38.6568L149.017 33.6381" stroke="#5570F1" stroke-width="4.57493" stroke-linecap="round" stroke-linejoin="round"/>
<path d="M145.253 35.8112L152.781 31.4648" stroke="#5570F1" stroke-width="4.57493" stroke-linecap="round" stroke-linejoin="round"/>
<path d="M188.135 101.393L191.033 106.412" stroke="#5570F1" stroke-width="4.57493" stroke-linecap="round" stroke-linejoin="round"/>
<path d="M194.797 104.238L187.269 108.585" stroke="#5570F1" stroke-width="4.57493" stroke-linecap="round" stroke-linejoin="round"/>
<path d="M201.39 51.9159L206.409 49.0183" stroke="#5570F1" stroke-width="4.57493" stroke-linecap="round" stroke-linejoin="round"/>
<path d="M204.236 45.2542L208.582 52.7823" stroke="#5570F1" stroke-width="4.57493" stroke-linecap="round" stroke-linejoin="round"/>
<path d="M138.659 88.1342L133.64 91.0317" stroke="#5570F1" stroke-width="4.57493" stroke-linecap="round" stroke-linejoin="round"/>
<path d="M135.814 94.7958L131.467 87.2677" stroke="#5570F1" stroke-width="4.57493" stroke-linecap="round" stroke-linejoin="round"/>
<path d="M138.659 51.9143L133.641 49.0167" stroke="#5570F1" stroke-width="4.57493" stroke-linecap="round" stroke-linejoin="round"/>
<path d="M131.467 52.7808L135.813 45.2527" stroke="#5570F1" stroke-width="4.57493" stroke-linecap="round" stroke-linejoin="round"/>
<path d="M201.392 88.1353L206.411 91.0328" stroke="#5570F1" stroke-width="4.57493" stroke-linecap="round" stroke-linejoin="round"/>
<path d="M208.584 87.2687L204.238 94.7969" stroke="#5570F1" stroke-width="4.57493" stroke-linecap="round" stroke-linejoin="round"/>
<path d="M188.133 38.6585L191.031 33.6398" stroke="#5570F1" stroke-width="4.57493" stroke-linecap="round" stroke-linejoin="round"/>
<path d="M187.267 31.4662L194.795 35.8126" stroke="#5570F1" stroke-width="4.57493" stroke-linecap="round" stroke-linejoin="round"/>
<path d="M151.916 101.392L149.019 106.41" stroke="#5570F1" stroke-width="4.57493" stroke-linecap="round" stroke-linejoin="round"/>
<path d="M152.783 108.583L145.254 104.237" stroke="#5570F1" stroke-width="4.57493" stroke-linecap="round" stroke-linejoin="round"/>
<path d="M203.956 70.0251C203.956 88.7654 188.764 103.957 170.024 103.957C151.284 103.957 136.092 88.7654 136.092 70.0251C136.092 51.2848 151.284 36.0928 170.024 36.0928C188.764 36.0928 203.956 51.2848 203.956 70.0251Z" stroke="#5570F1" stroke-width="4.57493"/>
<path d="M172.084 68.5763C172.084 70.5136 170.513 72.084 168.576 72.084C166.639 72.084 165.068 70.5136 165.068 68.5763C165.068 66.639 166.639 65.0686 168.576 65.0686C170.513 65.0686 172.084 66.639 172.084 68.5763Z" stroke="#5570F1" stroke-width="4.57493"/>
<path d="M172.084 48.293C172.084 50.2302 170.513 51.8007 168.576 51.8007C166.639 51.8007 165.068 50.2302 165.068 48.293C165.068 46.3557 166.639 44.7853 168.576 44.7853C170.513 44.7853 172.084 46.3557 172.084 48.293Z" stroke="#5570F1" stroke-width="4.57493"/>
<circle cx="171.474" cy="88.8593" r="6.40529" stroke="#5570F1" stroke-width="4.57493"/>
<circle cx="152.46" cy="59.8824" r="2.48485" transform="rotate(-60 152.46 59.8824)" stroke="#5570F1" stroke-width="4.57493"/>
<circle cx="189.777" cy="78.0221" r="2.9257" transform="rotate(-60 189.777 78.0221)" stroke="#5570F1" stroke-width="4.57493"/>
<mask id="path-31-inside-1_235_317" fill="white">
<ellipse cx="152.459" cy="80.1659" rx="3.91959" ry="3.91959" transform="rotate(-120 152.459 80.1659)"/>
</mask>
<path d="M152.787 80.7334C152.473 80.9144 152.073 80.807 151.892 80.4936L159.816 75.9186C157.47 71.8558 152.275 70.4637 148.212 72.8094L152.787 80.7334ZM151.892 80.4936C151.711 80.1801 151.818 79.7793 152.131 79.5983L156.706 87.5223C160.769 85.1767 162.161 79.9815 159.816 75.9186L151.892 80.4936ZM152.131 79.5983C152.445 79.4174 152.846 79.5248 153.027 79.8382L145.103 84.4131C147.448 88.476 152.643 89.868 156.706 87.5223L152.131 79.5983ZM153.027 79.8382C153.208 80.1517 153.1 80.5525 152.787 80.7334L148.212 72.8094C144.149 75.1551 142.757 80.3503 145.103 84.4131L153.027 79.8382Z" fill="#5570F1" mask="url(#path-31-inside-1_235_317)"/>
<path d="M185.112 55.5908C187.483 54.2221 190.514 55.0343 191.883 57.405C193.252 59.7757 192.439 62.807 190.069 64.1757C187.698 65.5444 184.667 64.7322 183.298 62.3615C181.929 59.9908 182.742 56.9595 185.112 55.5908Z" stroke="#5570F1" stroke-width="4.57493"/>
<path d="M0.032 151L4.8 128.6H15.232C16.64 128.6 17.8667 128.888 18.912 129.464C19.9787 130.019 20.8107 130.797 21.408 131.8C22.0053 132.781 22.304 133.923 22.304 135.224C22.304 136.653 21.92 137.955 21.152 139.128C20.4053 140.301 19.392 141.24 18.112 141.944C16.832 142.627 15.4027 142.968 13.824 142.968H7.104L5.408 151H0.032ZM8.096 138.424H13.728C14.3253 138.424 14.848 138.307 15.296 138.072C15.7653 137.816 16.128 137.485 16.384 137.08C16.6613 136.653 16.8 136.184 16.8 135.672C16.8 134.947 16.5653 134.371 16.096 133.944C15.648 133.517 15.04 133.304 14.272 133.304H9.184L8.096 138.424ZM27.045 151.16C25.2957 151.16 23.8983 150.733 22.853 149.88C21.829 149.027 21.317 147.885 21.317 146.456C21.317 145.283 21.605 144.28 22.181 143.448C22.757 142.616 23.5783 141.976 24.645 141.528C25.733 141.08 27.0237 140.856 28.517 140.856C29.2423 140.856 29.9677 140.92 30.693 141.048C31.4397 141.155 32.1543 141.315 32.837 141.528L32.933 141.048C33.1463 140.045 32.9757 139.299 32.421 138.808C31.8877 138.296 30.981 138.04 29.701 138.04C29.125 138.04 28.4637 138.125 27.717 138.296C26.9917 138.445 26.0957 138.701 25.029 139.064L23.813 135.224C25.1143 134.733 26.3517 134.371 27.525 134.136C28.6983 133.901 29.8077 133.784 30.853 133.784C32.645 133.784 34.117 134.072 35.269 134.648C36.4423 135.224 37.2637 136.056 37.733 137.144C38.2023 138.211 38.277 139.501 37.957 141.016L35.845 151H30.821L31.013 150.072C30.3517 150.456 29.701 150.733 29.061 150.904C28.421 151.075 27.749 151.16 27.045 151.16ZM28.869 147.576C29.381 147.576 29.8717 147.523 30.341 147.416C30.8103 147.288 31.2583 147.117 31.685 146.904L32.165 144.696C31.0983 144.355 30.0423 144.184 28.997 144.184C28.0797 144.184 27.365 144.344 26.853 144.664C26.3623 144.984 26.117 145.443 26.117 146.04C26.117 146.509 26.3623 146.883 26.853 147.16C27.3437 147.437 28.0157 147.576 28.869 147.576ZM28.773 131.448L32.517 127.096H38.213L32.933 131.448H28.773ZM47.6065 157.848C46.1558 157.848 44.7052 157.645 43.2545 157.24C41.8038 156.835 40.5345 156.269 39.4465 155.544L41.7505 151.704C42.6892 152.301 43.6492 152.76 44.6305 153.08C45.6118 153.4 46.5612 153.56 47.4785 153.56C49.3985 153.56 50.5292 152.707 50.8705 151L51.0305 150.2C49.9425 150.776 48.7585 151.064 47.4785 151.064C46.0705 151.064 44.8012 150.723 43.6705 150.04C42.5398 149.357 41.6438 148.429 40.9825 147.256C40.3212 146.061 39.9905 144.728 39.9905 143.256C39.9905 141.955 40.2358 140.739 40.7265 139.608C41.2172 138.456 41.8892 137.453 42.7425 136.6C43.5958 135.747 44.5878 135.075 45.7185 134.584C46.8705 134.093 48.0972 133.848 49.3985 133.848C50.3372 133.848 51.2118 133.976 52.0225 134.232C52.8545 134.488 53.5905 134.861 54.2305 135.352L54.4865 134.072H59.5425L55.8625 151.576C55.4358 153.603 54.5185 155.149 53.1105 156.216C51.7025 157.304 49.8678 157.848 47.6065 157.848ZM48.8865 146.744C50.0385 146.744 51.0732 146.403 51.9905 145.72L53.2705 139.672C52.8225 139.245 52.2785 138.904 51.6385 138.648C50.9985 138.392 50.3158 138.264 49.5905 138.264C48.7372 138.264 47.9585 138.467 47.2545 138.872C46.5505 139.277 45.9958 139.821 45.5905 140.504C45.1852 141.187 44.9825 141.955 44.9825 142.808C44.9825 143.555 45.1425 144.227 45.4625 144.824C45.8038 145.421 46.2732 145.891 46.8705 146.232C47.4678 146.573 48.1398 146.744 48.8865 146.744ZM59.1197 151L62.7038 134.072H67.7917L64.2078 151H59.1197ZM65.8718 132.504C65.1678 132.504 64.5704 132.269 64.0798 131.8C63.6104 131.309 63.3758 130.712 63.3758 130.008C63.3758 129.432 63.5144 128.899 63.7918 128.408C64.0904 127.917 64.4744 127.533 64.9438 127.256C65.4344 126.957 65.9571 126.808 66.5118 126.808C67.2158 126.808 67.8024 127.053 68.2718 127.544C68.7624 128.013 69.0078 128.6 69.0078 129.304C69.0078 129.88 68.8584 130.413 68.5598 130.904C68.2824 131.373 67.8984 131.757 67.4078 132.056C66.9384 132.355 66.4264 132.504 65.8718 132.504ZM67.3385 151L70.9225 134.072H76.0105L75.7865 135.128C77.1518 134.253 78.6238 133.816 80.2025 133.816C81.5465 133.816 82.6772 134.125 83.5945 134.744C84.5118 135.363 85.1518 136.205 85.5145 137.272C85.8985 138.339 85.9412 139.555 85.6425 140.92L83.4985 151H78.4105L80.4585 141.4C80.6505 140.44 80.5118 139.672 80.0425 139.096C79.5732 138.499 78.8692 138.2 77.9305 138.2C77.3332 138.2 76.7785 138.307 76.2665 138.52C75.7545 138.712 75.2852 139.021 74.8585 139.448L72.4265 151H67.3385ZM92.6388 151.16C90.8894 151.16 89.4921 150.733 88.4468 149.88C87.4228 149.027 86.9108 147.885 86.9108 146.456C86.9108 145.283 87.1987 144.28 87.7747 143.448C88.3508 142.616 89.1721 141.976 90.2388 141.528C91.3268 141.08 92.6174 140.856 94.1108 140.856C94.8361 140.856 95.5614 140.92 96.2868 141.048C97.0334 141.155 97.7481 141.315 98.4308 141.528L98.5268 141.048C98.7401 140.045 98.5694 139.299 98.0148 138.808C97.4814 138.296 96.5748 138.04 95.2948 138.04C94.7188 138.04 94.0574 138.125 93.3108 138.296C92.5854 138.445 91.6894 138.701 90.6228 139.064L89.4068 135.224C90.7081 134.733 91.9454 134.371 93.1188 134.136C94.2921 133.901 95.4014 133.784 96.4468 133.784C98.2388 133.784 99.7108 134.072 100.863 134.648C102.036 135.224 102.857 136.056 103.327 137.144C103.796 138.211 103.871 139.501 103.551 141.016L101.439 151H96.4148L96.6068 150.072C95.9454 150.456 95.2948 150.733 94.6548 150.904C94.0148 151.075 93.3428 151.16 92.6388 151.16ZM94.4628 147.576C94.9748 147.576 95.4654 147.523 95.9348 147.416C96.4041 147.288 96.8521 147.117 97.2788 146.904L97.7588 144.696C96.6921 144.355 95.6361 144.184 94.5908 144.184C93.6734 144.184 92.9588 144.344 92.4468 144.664C91.9561 144.984 91.7108 145.443 91.7108 146.04C91.7108 146.509 91.9561 146.883 92.4468 147.16C92.9374 147.437 93.6094 147.576 94.4628 147.576ZM110.682 151L114.266 134.072H119.354L119.13 135.128C120.496 134.253 121.968 133.816 123.546 133.816C124.89 133.816 126.021 134.125 126.938 134.744C127.856 135.363 128.496 136.205 128.858 137.272C129.242 138.339 129.285 139.555 128.986 140.92L126.842 151H121.754L123.802 141.4C123.994 140.44 123.856 139.672 123.386 139.096C122.917 138.499 122.213 138.2 121.274 138.2C120.677 138.2 120.122 138.307 119.61 138.52C119.098 138.712 118.629 139.021 118.202 139.448L115.77 151H110.682ZM135.983 151.16C134.233 151.16 132.836 150.733 131.791 149.88C130.767 149.027 130.255 147.885 130.255 146.456C130.255 145.283 130.542 144.28 131.118 143.448C131.695 142.616 132.516 141.976 133.583 141.528C134.671 141.08 135.961 140.856 137.455 140.856C138.18 140.856 138.905 140.92 139.631 141.048C140.377 141.155 141.092 141.315 141.775 141.528L141.871 141.048C142.084 140.045 141.913 139.299 141.359 138.808C140.825 138.296 139.919 138.04 138.639 138.04C138.063 138.04 137.401 138.125 136.655 138.296C135.929 138.445 135.033 138.701 133.967 139.064L132.751 135.224C134.052 134.733 135.289 134.371 136.463 134.136C137.636 133.901 138.745 133.784 139.791 133.784C141.583 133.784 143.055 134.072 144.207 134.648C145.38 135.224 146.201 136.056 146.671 137.144C147.14 138.211 147.215 139.501 146.895 141.016L144.783 151H139.759L139.951 150.072C139.289 150.456 138.639 150.733 137.999 150.904C137.359 151.075 136.687 151.16 135.983 151.16ZM137.807 147.576C138.319 147.576 138.809 147.523 139.279 147.416C139.748 147.288 140.196 147.117 140.623 146.904L141.103 144.696C140.036 144.355 138.98 144.184 137.935 144.184C137.017 144.184 136.303 144.344 135.791 144.664C135.3 144.984 135.055 145.443 135.055 146.04C135.055 146.509 135.3 146.883 135.791 147.16C136.281 147.437 136.953 147.576 137.807 147.576ZM136.847 131.736L133.999 130.744C135.129 128.12 136.527 126.808 138.191 126.808C138.873 126.808 139.503 126.968 140.079 127.288C140.655 127.608 141.188 127.928 141.679 128.248C142.169 128.568 142.607 128.728 142.991 128.728C143.289 128.728 143.535 128.611 143.727 128.376C143.94 128.141 144.207 127.704 144.527 127.064L147.343 128.024C146.788 129.347 146.169 130.339 145.487 131C144.804 131.64 144.025 131.96 143.151 131.96C142.447 131.96 141.817 131.8 141.263 131.48C140.708 131.16 140.196 130.84 139.727 130.52C139.279 130.2 138.82 130.04 138.351 130.04C138.073 130.04 137.817 130.179 137.583 130.456C137.348 130.712 137.103 131.139 136.847 131.736ZM157.344 151.32C155.723 151.32 154.272 150.968 152.992 150.264C151.712 149.539 150.699 148.557 149.952 147.32C149.205 146.083 148.832 144.696 148.832 143.16C148.832 141.88 149.077 140.675 149.568 139.544C150.08 138.392 150.773 137.389 151.648 136.536C152.544 135.661 153.568 134.979 154.72 134.488C155.893 133.997 157.131 133.752 158.432 133.752C160.053 133.752 161.493 134.115 162.752 134.84C164.032 135.544 165.045 136.515 165.792 137.752C166.539 138.968 166.912 140.355 166.912 141.912C166.912 143.192 166.656 144.397 166.144 145.528C165.653 146.659 164.96 147.661 164.064 148.536C163.189 149.411 162.176 150.093 161.024 150.584C159.872 151.075 158.645 151.32 157.344 151.32ZM157.568 146.84C158.165 146.84 158.72 146.723 159.232 146.488C159.765 146.232 160.235 145.891 160.64 145.464C161.045 145.037 161.355 144.536 161.568 143.96C161.803 143.384 161.92 142.776 161.92 142.136C161.92 141.368 161.76 140.696 161.44 140.12C161.12 139.523 160.672 139.064 160.096 138.744C159.541 138.403 158.901 138.232 158.176 138.232C157.579 138.232 157.013 138.36 156.48 138.616C155.968 138.851 155.509 139.181 155.104 139.608C154.699 140.035 154.379 140.536 154.144 141.112C153.931 141.688 153.824 142.296 153.824 142.936C153.824 143.683 153.984 144.355 154.304 144.952C154.624 145.549 155.061 146.019 155.616 146.36C156.192 146.68 156.843 146.84 157.568 146.84ZM183.472 151.352C181.787 151.352 180.283 151.011 178.96 150.328C177.659 149.624 176.635 148.664 175.888 147.448C175.141 146.211 174.768 144.813 174.768 143.256C174.768 141.976 175.003 140.771 175.472 139.64C175.963 138.488 176.635 137.475 177.488 136.6C178.341 135.725 179.323 135.043 180.432 134.552C181.563 134.061 182.768 133.816 184.048 133.816C185.584 133.816 186.939 134.168 188.112 134.872C189.285 135.576 190.203 136.547 190.864 137.784C191.525 139 191.856 140.419 191.856 142.04C191.856 142.275 191.845 142.541 191.824 142.84C191.803 143.139 191.749 143.619 191.664 144.28H179.824C179.995 144.835 180.272 145.325 180.656 145.752C181.04 146.179 181.499 146.509 182.032 146.744C182.587 146.979 183.205 147.096 183.888 147.096C184.571 147.096 185.189 147 185.744 146.808C186.32 146.595 186.821 146.296 187.248 145.912L190.096 149.144C189.029 149.933 187.973 150.499 186.928 150.84C185.904 151.181 184.752 151.352 183.472 151.352ZM180.112 140.696H187.088C186.939 140.163 186.704 139.704 186.384 139.32C186.085 138.915 185.712 138.605 185.264 138.392C184.837 138.179 184.357 138.072 183.824 138.072C183.269 138.072 182.757 138.189 182.288 138.424C181.819 138.637 181.392 138.936 181.008 139.32C180.645 139.704 180.347 140.163 180.112 140.696ZM192.526 151L196.11 134.072H201.198L200.974 135.128C202.339 134.253 203.811 133.816 205.39 133.816C206.734 133.816 207.865 134.125 208.782 134.744C209.699 135.363 210.339 136.205 210.702 137.272C211.086 138.339 211.129 139.555 210.83 140.92L208.686 151H203.598L205.646 141.4C205.838 140.44 205.699 139.672 205.23 139.096C204.761 138.499 204.057 138.2 203.118 138.2C202.521 138.2 201.966 138.307 201.454 138.52C200.942 138.712 200.473 139.021 200.046 139.448L197.614 151H192.526ZM220.866 151.352C219.309 151.352 217.912 151.011 216.674 150.328C215.437 149.624 214.456 148.664 213.73 147.448C213.026 146.232 212.674 144.856 212.674 143.32C212.674 141.997 212.909 140.76 213.378 139.608C213.869 138.435 214.541 137.411 215.394 136.536C216.248 135.661 217.24 134.979 218.37 134.488C219.501 133.997 220.717 133.752 222.018 133.752C223.49 133.752 224.845 134.061 226.082 134.68C227.341 135.299 228.354 136.163 229.122 137.272L225.666 140.408C225.197 139.661 224.653 139.117 224.034 138.776C223.437 138.435 222.744 138.264 221.954 138.264C221.378 138.264 220.834 138.392 220.322 138.648C219.81 138.883 219.352 139.224 218.946 139.672C218.562 140.099 218.264 140.6 218.05 141.176C217.837 141.752 217.73 142.371 217.73 143.032C217.73 143.8 217.88 144.472 218.178 145.048C218.498 145.624 218.936 146.072 219.49 146.392C220.045 146.712 220.685 146.872 221.41 146.872C222.072 146.872 222.68 146.744 223.234 146.488C223.81 146.211 224.386 145.795 224.962 145.24L227.586 148.6C225.645 150.435 223.405 151.352 220.866 151.352ZM238 151.32C236.379 151.32 234.928 150.968 233.648 150.264C232.368 149.539 231.355 148.557 230.608 147.32C229.862 146.083 229.488 144.696 229.488 143.16C229.488 141.88 229.734 140.675 230.224 139.544C230.736 138.392 231.43 137.389 232.304 136.536C233.2 135.661 234.224 134.979 235.376 134.488C236.55 133.997 237.787 133.752 239.088 133.752C240.71 133.752 242.15 134.115 243.408 134.84C244.688 135.544 245.702 136.515 246.448 137.752C247.195 138.968 247.568 140.355 247.568 141.912C247.568 143.192 247.312 144.397 246.8 145.528C246.31 146.659 245.616 147.661 244.72 148.536C243.846 149.411 242.832 150.093 241.68 150.584C240.528 151.075 239.302 151.32 238 151.32ZM238.224 146.84C238.822 146.84 239.376 146.723 239.888 146.488C240.422 146.232 240.891 145.891 241.296 145.464C241.702 145.037 242.011 144.536 242.224 143.96C242.459 143.384 242.576 142.776 242.576 142.136C242.576 141.368 242.416 140.696 242.096 140.12C241.776 139.523 241.328 139.064 240.752 138.744C240.198 138.403 239.558 138.232 238.832 138.232C238.235 138.232 237.67 138.36 237.136 138.616C236.624 138.851 236.166 139.181 235.76 139.608C235.355 140.035 235.035 140.536 234.8 141.112C234.587 141.688 234.48 142.296 234.48 142.936C234.48 143.683 234.64 144.355 234.96 144.952C235.28 145.549 235.718 146.019 236.272 146.36C236.848 146.68 237.499 146.84 238.224 146.84ZM248.182 151L251.766 134.072H256.854L256.63 135.128C257.996 134.253 259.468 133.816 261.046 133.816C262.39 133.816 263.521 134.125 264.438 134.744C265.356 135.363 265.996 136.205 266.358 137.272C266.742 138.339 266.785 139.555 266.486 140.92L264.342 151H259.254L261.302 141.4C261.494 140.44 261.356 139.672 260.886 139.096C260.417 138.499 259.713 138.2 258.774 138.2C258.177 138.2 257.622 138.307 257.11 138.52C256.598 138.712 256.129 139.021 255.702 139.448L253.27 151H248.182ZM275.354 151.192C273.327 151.192 271.866 150.712 270.97 149.752C270.095 148.771 269.85 147.373 270.234 145.56L271.77 138.392H268.41L269.306 134.072H272.666L273.594 129.72L278.906 128.6L277.722 134.072H282.362L281.466 138.392H276.826L275.45 144.76C275.3 145.528 275.375 146.083 275.674 146.424C275.994 146.765 276.58 146.936 277.434 146.936C277.796 146.936 278.138 146.915 278.458 146.872C278.799 146.829 279.162 146.765 279.546 146.68L278.65 150.84C278.244 150.925 277.722 151 277.082 151.064C276.463 151.149 275.887 151.192 275.354 151.192ZM280.776 151L284.36 134.072H289.448L289.128 135.576C289.747 134.979 290.419 134.531 291.144 134.232C291.891 133.912 292.669 133.752 293.48 133.752C294.483 133.752 295.219 133.933 295.688 134.296L294.76 138.776C294.547 138.605 294.173 138.456 293.64 138.328C293.128 138.2 292.637 138.136 292.168 138.136C290.589 138.136 289.256 138.776 288.168 140.056L285.864 151H280.776ZM300.108 151.16C298.358 151.16 296.961 150.733 295.916 149.88C294.892 149.027 294.38 147.885 294.38 146.456C294.38 145.283 294.667 144.28 295.243 143.448C295.82 142.616 296.641 141.976 297.708 141.528C298.796 141.08 300.086 140.856 301.58 140.856C302.305 140.856 303.03 140.92 303.756 141.048C304.502 141.155 305.217 141.315 305.9 141.528L305.996 141.048C306.209 140.045 306.038 139.299 305.484 138.808C304.95 138.296 304.044 138.04 302.764 138.04C302.188 138.04 301.526 138.125 300.78 138.296C300.054 138.445 299.158 138.701 298.092 139.064L296.876 135.224C298.177 134.733 299.414 134.371 300.588 134.136C301.761 133.901 302.87 133.784 303.916 133.784C305.708 133.784 307.18 134.072 308.332 134.648C309.505 135.224 310.326 136.056 310.796 137.144C311.265 138.211 311.34 139.501 311.02 141.016L308.908 151H303.884L304.076 150.072C303.414 150.456 302.764 150.733 302.124 150.904C301.484 151.075 300.812 151.16 300.108 151.16ZM301.932 147.576C302.444 147.576 302.934 147.523 303.404 147.416C303.873 147.288 304.321 147.117 304.748 146.904L305.228 144.696C304.161 144.355 303.105 144.184 302.06 144.184C301.142 144.184 300.428 144.344 299.916 144.664C299.425 144.984 299.18 145.443 299.18 146.04C299.18 146.509 299.425 146.883 299.916 147.16C300.406 147.437 301.078 147.576 301.932 147.576ZM320.541 151.224C319.133 151.224 317.853 150.883 316.701 150.2C315.57 149.496 314.664 148.547 313.981 147.352C313.32 146.157 312.989 144.824 312.989 143.352C312.989 142.029 313.234 140.792 313.725 139.64C314.216 138.488 314.888 137.485 315.741 136.632C316.616 135.757 317.629 135.075 318.781 134.584C319.933 134.093 321.16 133.848 322.461 133.848C323.4 133.848 324.285 133.987 325.117 134.264C325.949 134.52 326.685 134.893 327.325 135.384L328.765 128.6L334.077 127.48L329.085 151H324.061L324.221 150.296C323.048 150.915 321.821 151.224 320.541 151.224ZM321.949 146.84C322.568 146.84 323.133 146.755 323.645 146.584C324.178 146.392 324.669 146.115 325.117 145.752L326.397 139.736C325.97 139.288 325.426 138.936 324.765 138.68C324.104 138.403 323.4 138.264 322.653 138.264C321.778 138.264 320.989 138.477 320.285 138.904C319.581 139.309 319.016 139.864 318.589 140.568C318.184 141.251 317.981 142.029 317.981 142.904C317.981 143.651 318.152 144.323 318.493 144.92C318.834 145.517 319.304 145.987 319.901 146.328C320.52 146.669 321.202 146.84 321.949 146.84ZM338.358 151.16C336.608 151.16 335.211 150.733 334.166 149.88C333.142 149.027 332.63 147.885 332.63 146.456C332.63 145.283 332.917 144.28 333.493 143.448C334.07 142.616 334.891 141.976 335.958 141.528C337.046 141.08 338.336 140.856 339.83 140.856C340.555 140.856 341.28 140.92 342.006 141.048C342.752 141.155 343.467 141.315 344.15 141.528L344.246 141.048C344.459 140.045 344.288 139.299 343.734 138.808C343.2 138.296 342.294 138.04 341.014 138.04C340.438 138.04 339.776 138.125 339.03 138.296C338.304 138.445 337.408 138.701 336.342 139.064L335.126 135.224C336.427 134.733 337.664 134.371 338.838 134.136C340.011 133.901 341.12 133.784 342.166 133.784C343.958 133.784 345.43 134.072 346.582 134.648C347.755 135.224 348.576 136.056 349.046 137.144C349.515 138.211 349.59 139.501 349.27 141.016L347.158 151H342.134L342.326 150.072C341.664 150.456 341.014 150.733 340.374 150.904C339.734 151.075 339.062 151.16 338.358 151.16ZM340.182 147.576C340.694 147.576 341.184 147.523 341.654 147.416C342.123 147.288 342.571 147.117 342.998 146.904L343.478 144.696C342.411 144.355 341.355 144.184 340.31 144.184C339.392 144.184 338.678 144.344 338.166 144.664C337.675 144.984 337.43 145.443 337.43 146.04C337.43 146.509 337.675 146.883 338.166 147.16C338.656 147.437 339.328 147.576 340.182 147.576ZM352.167 144.088L354.791 128.6H359.943L356.039 144.088H352.167ZM352.839 151.352C352.092 151.352 351.463 151.107 350.951 150.616C350.46 150.104 350.215 149.485 350.215 148.76C350.215 148.163 350.364 147.619 350.663 147.128C350.983 146.616 351.388 146.211 351.879 145.912C352.391 145.592 352.946 145.432 353.543 145.432C354.29 145.432 354.898 145.677 355.367 146.168C355.858 146.659 356.103 147.277 356.103 148.024C356.103 148.6 355.943 149.144 355.623 149.656C355.324 150.168 354.93 150.584 354.439 150.904C353.948 151.203 353.415 151.352 352.839 151.352Z" fill="#5570F1"/>
<path d="M87.3311 114L91.4289 94.7526H43.3725L46.8495 78.4855L102.481 27.0764H125.453L114.65 77.9888H125.329L121.728 94.7526H111.049L106.951 114H87.3311ZM69.4496 77.9888H95.03L101.239 48.6831L69.4496 77.9888ZM256.134 114L260.231 94.7526H212.175L215.652 78.4855L271.283 27.0764H294.256L283.452 77.9888H294.132L290.531 94.7526H279.851L275.754 114H256.134ZM238.252 77.9888H263.833L270.041 48.6831L238.252 77.9888Z" fill="#5570F1"/>
</svg>
