<svg width="699" height="204" viewBox="0 0 699 204" fill="none" xmlns="http://www.w3.org/2000/svg">
<path d="M73.5254 36.4951V30.4102" stroke="#5570F1" stroke-width="4.57493" stroke-linecap="round" stroke-linejoin="round"/>
<path d="M68.9615 30.4102L78.0889 30.4102" stroke="#5570F1" stroke-width="4.57493" stroke-linecap="round" stroke-linejoin="round"/>
<path d="M73.5259 112.556L73.5259 118.641" stroke="#5570F1" stroke-width="4.57493" stroke-linecap="round" stroke-linejoin="round"/>
<path d="M78.0897 118.641L68.9624 118.641" stroke="#5570F1" stroke-width="4.57493" stroke-linecap="round" stroke-linejoin="round"/>
<path d="M111.556 74.5256L117.641 74.5256" stroke="#5570F1" stroke-width="4.57493" stroke-linecap="round" stroke-linejoin="round"/>
<path d="M117.641 69.962L117.641 79.0893" stroke="#5570F1" stroke-width="4.57493" stroke-linecap="round" stroke-linejoin="round"/>
<path d="M35.495 74.5256L29.4102 74.5256" stroke="#5570F1" stroke-width="4.57493" stroke-linecap="round" stroke-linejoin="round"/>
<path d="M29.4102 79.0892L29.4102 69.9619" stroke="#5570F1" stroke-width="4.57493" stroke-linecap="round" stroke-linejoin="round"/>
<path d="M54.5102 41.5895L51.4678 36.3198" stroke="#5570F1" stroke-width="4.57493" stroke-linecap="round" stroke-linejoin="round"/>
<path d="M47.5159 38.6017L55.4204 34.038" stroke="#5570F1" stroke-width="4.57493" stroke-linecap="round" stroke-linejoin="round"/>
<path d="M92.5411 107.462L95.5835 112.731" stroke="#5570F1" stroke-width="4.57493" stroke-linecap="round" stroke-linejoin="round"/>
<path d="M99.5353 110.45L91.6309 115.013" stroke="#5570F1" stroke-width="4.57493" stroke-linecap="round" stroke-linejoin="round"/>
<path d="M106.459 55.511L111.729 52.4686" stroke="#5570F1" stroke-width="4.57493" stroke-linecap="round" stroke-linejoin="round"/>
<path d="M109.447 48.5163L114.011 56.4208" stroke="#5570F1" stroke-width="4.57493" stroke-linecap="round" stroke-linejoin="round"/>
<path d="M40.5919 93.5402L35.3223 96.5827" stroke="#5570F1" stroke-width="4.57493" stroke-linecap="round" stroke-linejoin="round"/>
<path d="M37.6042 100.535L33.0405 92.6304" stroke="#5570F1" stroke-width="4.57493" stroke-linecap="round" stroke-linejoin="round"/>
<path d="M40.5914 55.5097L35.3218 52.4673" stroke="#5570F1" stroke-width="4.57493" stroke-linecap="round" stroke-linejoin="round"/>
<path d="M33.0399 56.4195L37.6035 48.5151" stroke="#5570F1" stroke-width="4.57493" stroke-linecap="round" stroke-linejoin="round"/>
<path d="M106.461 93.5415L111.731 96.584" stroke="#5570F1" stroke-width="4.57493" stroke-linecap="round" stroke-linejoin="round"/>
<path d="M114.013 92.6317L109.449 100.536" stroke="#5570F1" stroke-width="4.57493" stroke-linecap="round" stroke-linejoin="round"/>
<path d="M92.5391 41.591L95.5815 36.3213" stroke="#5570F1" stroke-width="4.57493" stroke-linecap="round" stroke-linejoin="round"/>
<path d="M91.6297 34.0395L99.5342 38.6031" stroke="#5570F1" stroke-width="4.57493" stroke-linecap="round" stroke-linejoin="round"/>
<path d="M54.5122 107.46L51.4697 112.73" stroke="#5570F1" stroke-width="4.57493" stroke-linecap="round" stroke-linejoin="round"/>
<path d="M55.4216 115.012L47.5171 110.448" stroke="#5570F1" stroke-width="4.57493" stroke-linecap="round" stroke-linejoin="round"/>
<circle cx="73.5266" cy="74.5256" r="35.743" stroke="#5570F1" stroke-width="4.57493"/>
<circle cx="72.0043" cy="73.0044" r="3.79742" stroke="#5570F1" stroke-width="4.57493"/>
<circle cx="72.0043" cy="51.7073" r="3.79742" stroke="#5570F1" stroke-width="4.57493"/>
<circle cx="75.0468" cy="94.3015" r="6.83985" stroke="#5570F1" stroke-width="4.57493"/>
<circle cx="55.0818" cy="63.8762" r="2.72343" transform="rotate(-60 55.0818 63.8762)" stroke="#5570F1" stroke-width="4.57493"/>
<circle cx="94.2639" cy="82.9225" r="3.18631" transform="rotate(-60 94.2639 82.9225)" stroke="#5570F1" stroke-width="4.57493"/>
<mask id="path-31-inside-1_208_328" fill="white">
<ellipse cx="55.0821" cy="85.1736" rx="4.11553" ry="4.11553" transform="rotate(-120 55.0821 85.1736)"/>
</mask>
<path d="M55.3118 85.5715C55.092 85.6983 54.8111 85.623 54.6842 85.4033L62.6082 80.8284C60.2084 76.6718 54.8934 75.2476 50.7368 77.6474L55.3118 85.5715ZM54.6842 85.4033C54.5574 85.1836 54.6327 84.9026 54.8524 84.7758L59.4273 92.6998C63.5839 90.3 65.008 84.985 62.6082 80.8284L54.6842 85.4033ZM54.8524 84.7758C55.0721 84.6489 55.3531 84.7242 55.4799 84.9439L47.5559 89.5188C49.9557 93.6754 55.2707 95.0996 59.4273 92.6998L54.8524 84.7758ZM55.4799 84.9439C55.6068 85.1636 55.5315 85.4446 55.3118 85.5715L50.7368 77.6474C46.5803 80.0473 45.1561 85.3623 47.5559 89.5188L55.4799 84.9439Z" fill="#5570F1" mask="url(#path-31-inside-1_208_328)"/>
<path d="M89.3098 59.2709C91.8536 57.8022 95.1065 58.6738 96.5752 61.2177C98.0439 63.7616 97.1723 67.0144 94.6284 68.4831C92.0845 69.9518 88.8317 69.0802 87.363 66.5363C85.8943 63.9925 86.7659 60.7396 89.3098 59.2709Z" stroke="#5570F1" stroke-width="4.57493"/>
<path d="M203.924 104.777C197.384 104.777 191.465 103.287 186.167 100.307C180.951 97.3268 176.812 93.2704 173.749 88.1377C170.686 82.9223 169.154 77.1274 169.154 70.753C169.154 64.2958 170.686 58.5009 173.749 53.3683C176.812 48.2357 180.951 44.1792 186.167 41.199C191.465 38.136 197.384 36.6045 203.924 36.6045C209.305 36.6045 214.437 37.6806 219.322 39.833C224.206 41.9027 228.345 44.8829 231.739 48.7738L219.446 61.5639C217.128 58.9148 214.769 57.0108 212.368 55.8518C209.967 54.6101 207.318 53.9892 204.421 53.9892C201.523 53.9892 198.915 54.7342 196.597 56.2244C194.279 57.6317 192.458 59.6185 191.134 62.1848C189.809 64.6684 189.147 67.5244 189.147 70.753C189.147 73.8988 189.809 76.7549 191.134 79.3212C192.541 81.8047 194.445 83.7916 196.846 85.2817C199.247 86.689 201.937 87.3927 204.917 87.3927C207.649 87.3927 210.174 86.8132 212.492 85.6542C214.81 84.4952 217.045 82.7154 219.198 80.3146L231.119 92.7323C227.807 96.5404 223.751 99.5206 218.949 101.673C214.148 103.743 209.139 104.777 203.924 104.777ZM269.913 104.777C263.207 104.777 257.164 103.287 251.783 100.307C246.402 97.244 242.139 93.1462 238.993 88.0136C235.847 82.8809 234.274 77.1274 234.274 70.753C234.274 64.3786 235.847 58.6251 238.993 53.4925C242.139 48.2771 246.402 44.1792 251.783 41.199C257.164 38.136 263.207 36.6045 269.913 36.6045C276.619 36.6045 282.662 38.136 288.043 41.199C293.424 44.1792 297.687 48.2771 300.833 53.4925C303.979 58.6251 305.552 64.3786 305.552 70.753C305.552 77.1274 303.979 82.8809 300.833 88.0136C297.687 93.1462 293.424 97.244 288.043 100.307C282.662 103.287 276.619 104.777 269.913 104.777ZM269.913 87.3927C272.976 87.3927 275.708 86.6476 278.109 85.1575C280.509 83.6674 282.413 81.6806 283.821 79.197C285.228 76.6307 285.932 73.816 285.932 70.753C285.932 67.6072 285.228 64.7925 283.821 62.309C282.413 59.7427 280.468 57.7145 277.984 56.2244C275.584 54.7342 272.893 53.9892 269.913 53.9892C266.933 53.9892 264.201 54.7342 261.717 56.2244C259.317 57.7145 257.413 59.7427 256.005 62.309C254.598 64.7925 253.894 67.6072 253.894 70.753C253.894 73.816 254.598 76.6307 256.005 79.197C257.413 81.6806 259.317 83.6674 261.717 85.1575C264.201 86.6476 266.933 87.3927 269.913 87.3927ZM334.774 103.536L306.71 37.8462H328.565L344.832 78.0794L361.099 37.8462H382.458L354.394 103.536H334.774ZM388.474 103.536V37.8462H408.59V103.536H388.474ZM398.532 31.7616C395.469 31.7616 392.861 30.6854 390.709 28.533C388.556 26.3806 387.48 23.7729 387.48 20.7098C387.48 17.6468 388.556 15.0391 390.709 12.8867C392.861 10.7343 395.469 9.65813 398.532 9.65813C401.595 9.65813 404.203 10.7343 406.355 12.8867C408.507 15.0391 409.584 17.6468 409.584 20.7098C409.584 23.7729 408.507 26.3806 406.355 28.533C404.203 30.6854 401.595 31.7616 398.532 31.7616ZM451.52 104.405C445.311 104.405 439.641 102.915 434.508 99.9345C429.458 96.8715 425.443 92.8151 422.463 87.7652C419.483 82.6326 417.993 76.9205 417.993 70.6288C417.993 64.3372 419.483 58.6665 422.463 53.6166C425.526 48.484 429.624 44.4276 434.756 41.4473C439.972 38.4671 445.767 36.977 452.141 36.977C455.204 36.977 458.143 37.3495 460.958 38.0946C463.772 38.8396 466.422 39.9158 468.905 41.3232V16.612L489.022 13.5076V103.536H469.153V98.6928C463.938 102.501 458.06 104.405 451.52 104.405ZM454.997 87.2685C457.812 87.2685 460.378 86.8546 462.696 86.0267C465.014 85.1161 467.084 83.7916 468.905 82.0531V59.0804C467.167 57.4247 465.097 56.183 462.696 55.3551C460.295 54.4445 457.729 53.9892 454.997 53.9892C451.769 53.9892 448.83 54.7342 446.181 56.2244C443.614 57.6317 441.545 59.6185 439.972 62.1848C438.482 64.6684 437.737 67.483 437.737 70.6288C437.737 73.7746 438.482 76.6307 439.972 79.197C441.545 81.6806 443.614 83.6674 446.181 85.1575C448.83 86.5648 451.769 87.2685 454.997 87.2685ZM500.004 76.341V59.5771H548.06V76.341H500.004ZM569.247 103.536V36.977L551.241 44.1792V26.7945L576.697 16.612H589.363V103.536H569.247ZM632.707 15.2461C640.323 15.2461 646.987 17.0673 652.699 20.7098C658.494 24.3524 662.964 29.4436 666.11 35.9836C669.339 42.4408 670.953 50.0155 670.953 58.7079C670.953 67.897 669.173 75.9684 665.613 82.9223C662.136 89.8762 657.211 95.2986 650.836 99.1895C644.545 102.998 637.177 104.902 628.733 104.902C623.931 104.902 619.089 104.032 614.204 102.294C609.32 100.555 605.346 98.2788 602.283 95.4642L613.335 81.8047C615.736 83.8743 618.261 85.4059 620.91 86.3993C623.642 87.3099 626.746 87.7652 630.223 87.7652C634.942 87.7652 638.915 86.6062 642.144 84.2883C645.373 81.9703 647.815 78.6175 649.47 74.23C651.126 69.7596 651.954 64.3786 651.954 58.087C649.222 61.9779 645.911 64.9995 642.02 67.1519C638.212 69.3043 634.114 70.3805 629.726 70.3805C624.014 70.3805 618.964 69.2629 614.577 67.0277C610.189 64.7925 606.754 61.6881 604.27 57.7145C601.787 53.7408 600.545 49.1877 600.545 44.055C600.545 38.5085 601.911 33.5828 604.643 29.278C607.457 24.9732 611.307 21.5791 616.191 19.0956C621.075 16.5292 626.581 15.2461 632.707 15.2461ZM632.955 55.4793C636.515 55.4793 639.785 54.817 642.765 53.4925C645.828 52.1679 648.518 50.3053 650.836 47.9045C650.009 44.5931 648.767 41.7371 647.111 39.3363C645.538 36.8528 643.593 34.9488 641.275 33.6242C639.04 32.2997 636.515 31.6374 633.7 31.6374C630.968 31.6374 628.485 32.1755 626.249 33.2517C624.097 34.2451 622.4 35.6524 621.158 37.4737C619.916 39.2949 619.296 41.3646 619.296 43.6825C619.296 46.0005 619.875 48.0701 621.034 49.8913C622.193 51.6298 623.807 52.9958 625.877 53.9892C627.947 54.9826 630.306 55.4793 632.955 55.4793Z" fill="#5570F1"/>
<path d="M166.086 151.536L177.686 123.536H181.406L192.926 151.536H189.566L186.046 142.736H172.846L169.286 151.536H166.086ZM173.926 140.096H184.966L179.446 126.376L173.926 140.096ZM204.339 160.096C202.952 160.096 201.579 159.909 200.219 159.536C198.859 159.189 197.619 158.682 196.499 158.016L197.779 155.696C198.979 156.336 200.085 156.802 201.099 157.096C202.139 157.389 203.179 157.536 204.219 157.536C206.112 157.536 207.552 157.082 208.539 156.176C209.525 155.269 210.019 153.936 210.019 152.176V149.376C208.179 150.922 206.059 151.696 203.659 151.696C201.819 151.696 200.139 151.242 198.619 150.336C197.099 149.429 195.885 148.202 194.979 146.656C194.099 145.082 193.659 143.336 193.659 141.416C193.659 139.496 194.099 137.762 194.979 136.216C195.885 134.642 197.099 133.402 198.619 132.496C200.139 131.589 201.845 131.136 203.739 131.136C204.885 131.136 205.992 131.336 207.059 131.736C208.152 132.136 209.152 132.722 210.059 133.496V131.496H212.979V152.136C212.979 154.696 212.232 156.656 210.739 158.016C209.245 159.402 207.112 160.096 204.339 160.096ZM203.899 149.096C205.179 149.096 206.352 148.856 207.419 148.376C208.485 147.896 209.352 147.216 210.019 146.336V136.496C209.352 135.642 208.472 134.976 207.379 134.496C206.312 134.016 205.152 133.776 203.899 133.776C202.512 133.776 201.259 134.109 200.139 134.776C199.045 135.442 198.179 136.362 197.539 137.536C196.899 138.682 196.579 139.976 196.579 141.416C196.579 142.856 196.899 144.162 197.539 145.336C198.205 146.482 199.085 147.402 200.179 148.096C201.299 148.762 202.539 149.096 203.899 149.096ZM227.416 151.896C225.496 151.896 223.749 151.442 222.176 150.536C220.629 149.602 219.389 148.349 218.456 146.776C217.549 145.202 217.096 143.442 217.096 141.496C217.096 139.576 217.536 137.842 218.416 136.296C219.296 134.722 220.483 133.482 221.976 132.576C223.469 131.642 225.136 131.176 226.976 131.176C228.763 131.176 230.363 131.642 231.776 132.576C233.216 133.482 234.349 134.722 235.176 136.296C236.029 137.842 236.456 139.576 236.456 141.496V142.416H220.016C220.176 143.722 220.589 144.896 221.256 145.936C221.949 146.976 222.843 147.802 223.936 148.416C225.029 149.002 226.229 149.296 227.536 149.296C228.576 149.296 229.589 149.136 230.576 148.816C231.563 148.496 232.389 148.042 233.056 147.456L234.896 149.416C233.776 150.242 232.603 150.869 231.376 151.296C230.176 151.696 228.856 151.896 227.416 151.896ZM220.096 140.056H233.496C233.336 138.856 232.936 137.789 232.296 136.856C231.683 135.896 230.909 135.149 229.976 134.616C229.043 134.056 228.016 133.776 226.896 133.776C225.749 133.776 224.696 134.042 223.736 134.576C222.776 135.109 221.976 135.856 221.336 136.816C220.696 137.749 220.283 138.829 220.096 140.056ZM240.594 151.536V131.496H243.554V133.856C245.128 132.016 247.234 131.096 249.874 131.096C251.394 131.096 252.728 131.429 253.874 132.096C255.048 132.736 255.954 133.642 256.594 134.816C257.261 135.962 257.594 137.309 257.594 138.856V151.536H254.674V139.456C254.674 137.669 254.168 136.269 253.154 135.256C252.168 134.216 250.808 133.696 249.074 133.696C247.874 133.696 246.808 133.962 245.874 134.496C244.941 135.029 244.168 135.789 243.554 136.776V151.536H240.594ZM271.707 151.856C269.841 151.856 268.134 151.402 266.587 150.496C265.067 149.562 263.854 148.322 262.947 146.776C262.067 145.202 261.627 143.442 261.627 141.496C261.627 139.549 262.067 137.802 262.947 136.256C263.854 134.709 265.067 133.482 266.587 132.576C268.134 131.642 269.854 131.176 271.747 131.176C272.921 131.176 274.054 131.376 275.147 131.776C276.241 132.149 277.241 132.709 278.147 133.456V123.536L281.107 122.856V151.536H278.187V149.416C276.427 151.042 274.267 151.856 271.707 151.856ZM271.987 149.256C273.241 149.256 274.401 149.016 275.467 148.536C276.561 148.029 277.454 147.336 278.147 146.456V136.536C277.454 135.682 276.561 135.016 275.467 134.536C274.401 134.029 273.241 133.776 271.987 133.776C270.601 133.776 269.334 134.109 268.187 134.776C267.067 135.442 266.174 136.362 265.507 137.536C264.867 138.682 264.547 139.989 264.547 141.456C264.547 142.922 264.867 144.242 265.507 145.416C266.174 146.589 267.067 147.522 268.187 148.216C269.334 148.909 270.601 149.256 271.987 149.256ZM292.461 151.896C290.994 151.896 289.701 151.642 288.581 151.136C287.488 150.629 286.621 149.922 285.981 149.016C285.368 148.109 285.061 147.056 285.061 145.856C285.061 143.962 285.781 142.469 287.221 141.376C288.661 140.282 290.608 139.736 293.061 139.736C295.221 139.736 297.181 140.189 298.941 141.096V138.456C298.941 136.856 298.488 135.656 297.581 134.856C296.674 134.029 295.354 133.616 293.621 133.616C292.634 133.616 291.634 133.762 290.621 134.056C289.634 134.322 288.541 134.762 287.341 135.376L286.221 133.096C287.661 132.402 288.994 131.896 290.221 131.576C291.448 131.256 292.674 131.096 293.901 131.096C296.434 131.096 298.381 131.696 299.741 132.896C301.128 134.096 301.821 135.816 301.821 138.056V151.536H298.941V149.576C298.034 150.349 297.034 150.936 295.941 151.336C294.874 151.709 293.714 151.896 292.461 151.896ZM287.901 145.776C287.901 146.896 288.368 147.816 289.301 148.536C290.261 149.229 291.488 149.576 292.981 149.576C294.181 149.576 295.274 149.389 296.261 149.016C297.248 148.642 298.141 148.056 298.941 147.256V143.496C298.114 142.936 297.234 142.536 296.301 142.296C295.368 142.029 294.314 141.896 293.141 141.896C291.541 141.896 290.261 142.256 289.301 142.976C288.368 143.669 287.901 144.602 287.901 145.776ZM306.766 151.536V131.496H309.726V133.696C311.246 131.962 313.206 131.096 315.606 131.096C317.019 131.096 318.273 131.429 319.366 132.096C320.459 132.736 321.313 133.616 321.926 134.736C322.753 133.509 323.739 132.602 324.886 132.016C326.033 131.402 327.339 131.096 328.806 131.096C330.273 131.096 331.553 131.429 332.646 132.096C333.739 132.736 334.593 133.642 335.206 134.816C335.846 135.962 336.166 137.309 336.166 138.856V151.536H333.246V139.456C333.246 137.669 332.779 136.269 331.846 135.256C330.913 134.216 329.646 133.696 328.046 133.696C326.953 133.696 325.953 133.976 325.046 134.536C324.139 135.069 323.366 135.882 322.726 136.976C322.779 137.269 322.819 137.576 322.846 137.896C322.899 138.189 322.926 138.509 322.926 138.856V151.536H320.006V139.456C320.006 137.669 319.539 136.269 318.606 135.256C317.673 134.216 316.419 133.696 314.846 133.696C313.779 133.696 312.806 133.949 311.926 134.456C311.073 134.936 310.339 135.656 309.726 136.616V151.536H306.766ZM350.541 151.896C348.621 151.896 346.874 151.442 345.301 150.536C343.754 149.602 342.514 148.349 341.581 146.776C340.674 145.202 340.221 143.442 340.221 141.496C340.221 139.576 340.661 137.842 341.541 136.296C342.421 134.722 343.608 133.482 345.101 132.576C346.594 131.642 348.261 131.176 350.101 131.176C351.888 131.176 353.488 131.642 354.901 132.576C356.341 133.482 357.474 134.722 358.301 136.296C359.154 137.842 359.581 139.576 359.581 141.496V142.416H343.141C343.301 143.722 343.714 144.896 344.381 145.936C345.074 146.976 345.968 147.802 347.061 148.416C348.154 149.002 349.354 149.296 350.661 149.296C351.701 149.296 352.714 149.136 353.701 148.816C354.688 148.496 355.514 148.042 356.181 147.456L358.021 149.416C356.901 150.242 355.728 150.869 354.501 151.296C353.301 151.696 351.981 151.896 350.541 151.896ZM343.221 140.056H356.621C356.461 138.856 356.061 137.789 355.421 136.856C354.808 135.896 354.034 135.149 353.101 134.616C352.168 134.056 351.141 133.776 350.021 133.776C348.874 133.776 347.821 134.042 346.861 134.576C345.901 135.109 345.101 135.856 344.461 136.816C343.821 137.749 343.408 138.829 343.221 140.056ZM363.719 151.536V131.496H366.679V133.856C368.253 132.016 370.359 131.096 372.999 131.096C374.519 131.096 375.853 131.429 376.999 132.096C378.173 132.736 379.079 133.642 379.719 134.816C380.386 135.962 380.719 137.309 380.719 138.856V151.536H377.799V139.456C377.799 137.669 377.293 136.269 376.279 135.256C375.293 134.216 373.933 133.696 372.199 133.696C370.999 133.696 369.933 133.962 368.999 134.496C368.066 135.029 367.293 135.789 366.679 136.776V151.536H363.719ZM392.966 151.936C391.233 151.936 389.9 151.522 388.966 150.696C388.033 149.869 387.566 148.669 387.566 147.096V134.016H383.246V131.496H387.566V126.416L390.486 125.656V131.496H396.526V134.016H390.486V146.336C390.486 147.402 390.726 148.176 391.206 148.656C391.686 149.109 392.473 149.336 393.566 149.336C394.126 149.336 394.62 149.296 395.046 149.216C395.5 149.136 395.98 149.002 396.486 148.816V151.416C395.98 151.602 395.406 151.736 394.766 151.816C394.153 151.896 393.553 151.936 392.966 151.936ZM408.625 151.936C406.732 151.936 404.998 151.482 403.425 150.576C401.878 149.642 400.652 148.389 399.745 146.816C398.838 145.242 398.385 143.482 398.385 141.536C398.385 139.589 398.838 137.829 399.745 136.256C400.652 134.682 401.878 133.442 403.425 132.536C404.998 131.602 406.732 131.136 408.625 131.136C410.545 131.136 412.278 131.602 413.825 132.536C415.372 133.442 416.598 134.682 417.505 136.256C418.412 137.829 418.865 139.589 418.865 141.536C418.865 143.482 418.412 145.242 417.505 146.816C416.598 148.389 415.372 149.642 413.825 150.576C412.278 151.482 410.545 151.936 408.625 151.936ZM408.625 149.296C409.985 149.296 411.212 148.949 412.305 148.256C413.425 147.562 414.305 146.629 414.945 145.456C415.612 144.282 415.945 142.976 415.945 141.536C415.945 140.069 415.612 138.762 414.945 137.616C414.305 136.442 413.425 135.509 412.305 134.816C411.212 134.122 409.985 133.776 408.625 133.776C407.265 133.776 406.025 134.122 404.905 134.816C403.812 135.509 402.932 136.442 402.265 137.616C401.625 138.762 401.305 140.069 401.305 141.536C401.305 142.976 401.625 144.282 402.265 145.456C402.932 146.629 403.812 147.562 404.905 148.256C406.025 148.949 407.265 149.296 408.625 149.296ZM429.377 151.936C427.724 151.936 426.164 151.669 424.697 151.136C423.257 150.576 422.004 149.802 420.937 148.816L422.737 146.896C423.67 147.749 424.697 148.416 425.817 148.896C426.937 149.349 428.084 149.576 429.257 149.576C430.857 149.576 432.164 149.242 433.177 148.576C434.19 147.909 434.697 147.042 434.697 145.976C434.697 145.096 434.39 144.416 433.777 143.936C433.19 143.429 432.257 143.082 430.977 142.896L427.497 142.416C425.497 142.122 424.004 141.522 423.017 140.616C422.057 139.709 421.577 138.482 421.577 136.936C421.577 135.816 421.897 134.816 422.537 133.936C423.177 133.056 424.057 132.362 425.177 131.856C426.324 131.349 427.63 131.096 429.097 131.096C430.564 131.096 431.937 131.309 433.217 131.736C434.497 132.162 435.75 132.829 436.977 133.736L435.417 135.736C434.297 134.962 433.204 134.402 432.137 134.056C431.097 133.682 430.03 133.496 428.937 133.496C427.55 133.496 426.43 133.802 425.577 134.416C424.724 135.029 424.297 135.829 424.297 136.816C424.297 137.722 424.59 138.416 425.177 138.896C425.764 139.349 426.71 139.669 428.017 139.856L431.497 140.336C433.497 140.602 434.99 141.189 435.977 142.096C436.99 143.002 437.497 144.242 437.497 145.816C437.497 146.962 437.137 148.002 436.417 148.936C435.697 149.869 434.724 150.602 433.497 151.136C432.297 151.669 430.924 151.936 429.377 151.936Z" fill="#4968FF"/>
</svg>
